<mxfile host="app.diagrams.net" agent="Mozilla/5.0 (Windows NT 10.0; Win64; x64) AppleWebKit/537.36 (KHTML, like Gecko) Chrome/137.0.0.0 Safari/537.36 Edg/137.0.0.0" version="26.2.12">
  <diagram name="Page-1" id="mSDNawyq5Da4shusDwBe">
    <mxGraphModel dx="1397" dy="1093" grid="1" gridSize="10" guides="1" tooltips="1" connect="1" arrows="1" fold="1" page="1" pageScale="1" pageWidth="827" pageHeight="1169" math="0" shadow="0">
      <root>
        <mxCell id="0" />
        <mxCell id="1" parent="0" />
        <mxCell id="gFEKdSKZ0CHtbDlrb0d2-1" value="" style="sketch=0;outlineConnect=0;fontColor=#232F3E;gradientColor=none;fillColor=#232F3D;strokeColor=none;dashed=0;verticalLabelPosition=bottom;verticalAlign=top;align=center;html=1;fontSize=12;fontStyle=0;aspect=fixed;pointerEvents=1;shape=mxgraph.aws4.document;" parent="1" vertex="1">
          <mxGeometry x="100" y="219.57999999999998" width="35" height="47.89" as="geometry" />
        </mxCell>
        <mxCell id="gFEKdSKZ0CHtbDlrb0d2-2" value="" style="sketch=0;outlineConnect=0;fontColor=#232F3E;gradientColor=none;fillColor=#232F3D;strokeColor=none;dashed=0;verticalLabelPosition=bottom;verticalAlign=top;align=center;html=1;fontSize=12;fontStyle=0;aspect=fixed;pointerEvents=1;shape=mxgraph.aws4.logs;" parent="1" vertex="1">
          <mxGeometry x="100" y="126.05" width="35" height="47.9" as="geometry" />
        </mxCell>
        <mxCell id="gFEKdSKZ0CHtbDlrb0d2-3" value="job trace" style="text;html=1;align=center;verticalAlign=middle;resizable=0;points=[];autosize=1;strokeColor=none;fillColor=none;fontFamily=Helvetica;fontSize=12;fontColor=default;" parent="1" vertex="1">
          <mxGeometry x="91" y="173.95" width="70" height="30" as="geometry" />
        </mxCell>
        <mxCell id="gFEKdSKZ0CHtbDlrb0d2-4" value="cluster config" style="text;html=1;align=center;verticalAlign=middle;resizable=0;points=[];autosize=1;strokeColor=none;fillColor=none;fontFamily=Helvetica;fontSize=12;fontColor=default;" parent="1" vertex="1">
          <mxGeometry x="91" y="268.31" width="90" height="30" as="geometry" />
        </mxCell>
        <mxCell id="gFEKdSKZ0CHtbDlrb0d2-5" value="" style="endArrow=classic;html=1;rounded=0;fontFamily=Helvetica;fontSize=12;fontColor=default;entryX=0;entryY=0.5;entryDx=0;entryDy=0;strokeWidth=1.5;" parent="1" source="gFEKdSKZ0CHtbDlrb0d2-2" target="gFEKdSKZ0CHtbDlrb0d2-7" edge="1">
          <mxGeometry width="50" height="50" relative="1" as="geometry">
            <mxPoint x="109" y="189" as="sourcePoint" />
            <mxPoint x="169" y="169.15" as="targetPoint" />
          </mxGeometry>
        </mxCell>
        <mxCell id="gFEKdSKZ0CHtbDlrb0d2-6" value="" style="endArrow=classic;html=1;rounded=0;fontFamily=Helvetica;fontSize=12;fontColor=default;entryX=0;entryY=0;entryDx=0;entryDy=0;strokeWidth=1.5;" parent="1" source="gFEKdSKZ0CHtbDlrb0d2-2" target="gFEKdSKZ0CHtbDlrb0d2-9" edge="1">
          <mxGeometry width="50" height="50" relative="1" as="geometry">
            <mxPoint x="121" y="190" as="sourcePoint" />
            <mxPoint x="171" y="210.85" as="targetPoint" />
          </mxGeometry>
        </mxCell>
        <mxCell id="gFEKdSKZ0CHtbDlrb0d2-7" value="&lt;font style=&quot;font-size: 16px;&quot;&gt;Estimator Job Predictor&lt;/font&gt;" style="rounded=1;whiteSpace=wrap;html=1;strokeColor=#6c8ebf;strokeWidth=1;align=center;verticalAlign=middle;fontFamily=Helvetica;fontSize=14;fillColor=#dae8fc;" parent="1" vertex="1">
          <mxGeometry x="171" y="130" width="120" height="40" as="geometry" />
        </mxCell>
        <mxCell id="gFEKdSKZ0CHtbDlrb0d2-8" value="" style="edgeStyle=orthogonalEdgeStyle;rounded=0;orthogonalLoop=1;jettySize=auto;html=1;fontFamily=Helvetica;fontSize=12;fontColor=default;" parent="1" source="gFEKdSKZ0CHtbDlrb0d2-9" target="gFEKdSKZ0CHtbDlrb0d2-11" edge="1">
          <mxGeometry relative="1" as="geometry" />
        </mxCell>
        <mxCell id="gFEKdSKZ0CHtbDlrb0d2-9" value="&lt;font style=&quot;font-size: 16px;&quot;&gt;Profiler&lt;/font&gt;" style="rounded=1;whiteSpace=wrap;html=1;strokeColor=#d6b656;strokeWidth=1;align=center;verticalAlign=middle;fontFamily=Helvetica;fontSize=15;fillColor=#fff2cc;" parent="1" vertex="1">
          <mxGeometry x="171" y="228.31" width="120" height="40" as="geometry" />
        </mxCell>
        <mxCell id="gFEKdSKZ0CHtbDlrb0d2-10" value="" style="endArrow=classic;html=1;rounded=0;fontFamily=Helvetica;fontSize=12;fontColor=default;entryX=0;entryY=0.5;entryDx=0;entryDy=0;strokeWidth=1.5;" parent="1" target="gFEKdSKZ0CHtbDlrb0d2-9" edge="1">
          <mxGeometry width="50" height="50" relative="1" as="geometry">
            <mxPoint x="140" y="248" as="sourcePoint" />
            <mxPoint x="161" y="198.31" as="targetPoint" />
          </mxGeometry>
        </mxCell>
        <mxCell id="gFEKdSKZ0CHtbDlrb0d2-11" value="&lt;font style=&quot;font-size: 16px;&quot;&gt;&amp;nbsp;Schedule Policy&lt;/font&gt;" style="rounded=1;whiteSpace=wrap;html=1;strokeColor=#d6b656;strokeWidth=1;align=center;verticalAlign=middle;fontFamily=Helvetica;fontSize=14;fillColor=#fff2cc;" parent="1" vertex="1">
          <mxGeometry x="390" y="228.31" width="120" height="40" as="geometry" />
        </mxCell>
        <mxCell id="gFEKdSKZ0CHtbDlrb0d2-12" value="" style="shape=flexArrow;endArrow=classic;startArrow=classic;html=1;rounded=0;fontFamily=Helvetica;fontSize=12;fontColor=default;width=6;endSize=2.7142857142857144;entryX=0.5;entryY=0;entryDx=0;entryDy=0;startWidth=7.428571428571429;startSize=2.7142857142857144;endWidth=7.428571428571429;" parent="1" target="gFEKdSKZ0CHtbDlrb0d2-11" edge="1">
          <mxGeometry width="100" height="100" relative="1" as="geometry">
            <mxPoint x="300" y="146" as="sourcePoint" />
            <mxPoint x="510.52" y="226.62000000000003" as="targetPoint" />
            <Array as="points">
              <mxPoint x="450" y="146" />
            </Array>
          </mxGeometry>
        </mxCell>
        <mxCell id="gFEKdSKZ0CHtbDlrb0d2-13" value="&lt;font style=&quot;font-size: 16px;&quot;&gt;Job placer&lt;/font&gt;" style="rounded=1;whiteSpace=wrap;html=1;strokeColor=#d6b656;strokeWidth=1;align=center;verticalAlign=middle;fontFamily=Helvetica;fontSize=14;fillColor=#fff2cc;" parent="1" vertex="1">
          <mxGeometry x="580" y="227.47" width="120" height="40" as="geometry" />
        </mxCell>
        <mxCell id="gFEKdSKZ0CHtbDlrb0d2-14" value="" style="endArrow=classic;html=1;rounded=0;fontFamily=Helvetica;fontSize=12;fontColor=default;" parent="1" edge="1">
          <mxGeometry width="50" height="50" relative="1" as="geometry">
            <mxPoint x="320" y="248.2" as="sourcePoint" />
            <mxPoint x="390" y="248.2" as="targetPoint" />
          </mxGeometry>
        </mxCell>
        <mxCell id="gFEKdSKZ0CHtbDlrb0d2-15" value="" style="endArrow=classic;html=1;rounded=0;fontFamily=Helvetica;fontSize=12;fontColor=default;strokeWidth=1.5;" parent="1" edge="1">
          <mxGeometry width="50" height="50" relative="1" as="geometry">
            <mxPoint x="510" y="248.2" as="sourcePoint" />
            <mxPoint x="580" y="248.2" as="targetPoint" />
          </mxGeometry>
        </mxCell>
        <mxCell id="gFEKdSKZ0CHtbDlrb0d2-16" value="&lt;font style=&quot;font-size: 14px;&quot;&gt;Performance&lt;/font&gt;" style="text;html=1;align=center;verticalAlign=middle;resizable=0;points=[];autosize=1;fontFamily=Helvetica;fontSize=12;strokeWidth=1.5;fontStyle=0" parent="1" vertex="1">
          <mxGeometry x="290" y="218.52" width="100" height="30" as="geometry" />
        </mxCell>
        <mxCell id="gFEKdSKZ0CHtbDlrb0d2-17" value="Node" style="ellipse;whiteSpace=wrap;html=1;aspect=fixed;fillColor=#dae8fc;strokeColor=#6c8ebf;" parent="1" vertex="1">
          <mxGeometry x="624" y="180" width="32" height="32" as="geometry" />
        </mxCell>
        <mxCell id="gFEKdSKZ0CHtbDlrb0d2-18" value="&lt;font style=&quot;font-size: 14px;&quot;&gt;FIFO&lt;/font&gt;" style="rounded=0;whiteSpace=wrap;html=1;fillColor=#d5e8d4;strokeColor=#82b366;" parent="1" vertex="1">
          <mxGeometry x="270" y="320" width="60" height="28" as="geometry" />
        </mxCell>
        <mxCell id="gFEKdSKZ0CHtbDlrb0d2-19" value="&lt;b&gt;&lt;font style=&quot;font-size: 14px;&quot;&gt;DeepShare&lt;/font&gt;&lt;/b&gt;" style="rounded=0;whiteSpace=wrap;html=1;fillColor=#d5e8d4;strokeColor=#82b366;" parent="1" vertex="1">
          <mxGeometry x="550" y="320" width="75" height="28" as="geometry" />
        </mxCell>
        <mxCell id="gFEKdSKZ0CHtbDlrb0d2-20" value="&lt;font style=&quot;font-size: 14px;&quot;&gt;Lucid&lt;/font&gt;" style="rounded=0;whiteSpace=wrap;html=1;fillColor=#d5e8d4;strokeColor=#82b366;" parent="1" vertex="1">
          <mxGeometry x="480" y="320" width="60" height="28" as="geometry" />
        </mxCell>
        <mxCell id="gFEKdSKZ0CHtbDlrb0d2-21" value="&lt;font style=&quot;font-size: 14px;&quot;&gt;SJF&lt;/font&gt;" style="rounded=0;whiteSpace=wrap;html=1;fillColor=#d5e8d4;strokeColor=#82b366;" parent="1" vertex="1">
          <mxGeometry x="350" y="320" width="60" height="28" as="geometry" />
        </mxCell>
        <mxCell id="gFEKdSKZ0CHtbDlrb0d2-22" value="" style="endArrow=none;html=1;rounded=0;entryX=0.145;entryY=1.016;entryDx=0;entryDy=0;entryPerimeter=0;exitX=0.5;exitY=0;exitDx=0;exitDy=0;" parent="1" source="gFEKdSKZ0CHtbDlrb0d2-18" target="gFEKdSKZ0CHtbDlrb0d2-11" edge="1">
          <mxGeometry width="50" height="50" relative="1" as="geometry">
            <mxPoint x="341" y="317.47" as="sourcePoint" />
            <mxPoint x="400" y="280" as="targetPoint" />
          </mxGeometry>
        </mxCell>
        <mxCell id="gFEKdSKZ0CHtbDlrb0d2-23" value="" style="endArrow=none;html=1;rounded=0;entryX=0.25;entryY=1;entryDx=0;entryDy=0;exitX=0.5;exitY=0;exitDx=0;exitDy=0;" parent="1" source="gFEKdSKZ0CHtbDlrb0d2-21" target="gFEKdSKZ0CHtbDlrb0d2-11" edge="1">
          <mxGeometry width="50" height="50" relative="1" as="geometry">
            <mxPoint x="414" y="320" as="sourcePoint" />
            <mxPoint x="464" y="270" as="targetPoint" />
          </mxGeometry>
        </mxCell>
        <mxCell id="gFEKdSKZ0CHtbDlrb0d2-24" value="" style="endArrow=none;html=1;rounded=0;entryX=0.679;entryY=1.016;entryDx=0;entryDy=0;entryPerimeter=0;exitX=0.5;exitY=0;exitDx=0;exitDy=0;" parent="1" source="gFEKdSKZ0CHtbDlrb0d2-20" target="gFEKdSKZ0CHtbDlrb0d2-11" edge="1">
          <mxGeometry width="50" height="50" relative="1" as="geometry">
            <mxPoint x="520" y="320" as="sourcePoint" />
            <mxPoint x="570" y="270" as="targetPoint" />
          </mxGeometry>
        </mxCell>
        <mxCell id="gFEKdSKZ0CHtbDlrb0d2-25" value="" style="endArrow=none;html=1;rounded=0;entryX=0.855;entryY=1.014;entryDx=0;entryDy=0;entryPerimeter=0;exitX=0.5;exitY=0;exitDx=0;exitDy=0;" parent="1" source="gFEKdSKZ0CHtbDlrb0d2-19" target="gFEKdSKZ0CHtbDlrb0d2-11" edge="1">
          <mxGeometry width="50" height="50" relative="1" as="geometry">
            <mxPoint x="600" y="320" as="sourcePoint" />
            <mxPoint x="650" y="270" as="targetPoint" />
          </mxGeometry>
        </mxCell>
        <mxCell id="gFEKdSKZ0CHtbDlrb0d2-26" value="&lt;font style=&quot;font-size: 18px;&quot;&gt;……&lt;/font&gt;" style="text;html=1;align=center;verticalAlign=middle;resizable=0;points=[];autosize=1;strokeColor=none;fillColor=none;" parent="1" vertex="1">
          <mxGeometry x="410" y="308" width="60" height="40" as="geometry" />
        </mxCell>
        <mxCell id="gFEKdSKZ0CHtbDlrb0d2-27" value="&lt;font style=&quot;font-size: 14px;&quot;&gt;Different Policy&lt;/font&gt;" style="text;html=1;align=center;verticalAlign=middle;resizable=0;points=[];autosize=1;strokeColor=none;fillColor=none;" parent="1" vertex="1">
          <mxGeometry x="390" y="290" width="120" height="30" as="geometry" />
        </mxCell>
        <mxCell id="gFEKdSKZ0CHtbDlrb0d2-28" value="GPU" style="ellipse;whiteSpace=wrap;html=1;aspect=fixed;fillColor=#d5e8d4;strokeColor=#82b366;" parent="1" vertex="1">
          <mxGeometry x="668" y="180" width="32" height="32" as="geometry" />
        </mxCell>
        <mxCell id="gFEKdSKZ0CHtbDlrb0d2-29" value="VC" style="ellipse;whiteSpace=wrap;html=1;aspect=fixed;fillColor=#e1d5e7;strokeColor=#9673a6;" parent="1" vertex="1">
          <mxGeometry x="580" y="180" width="32" height="32" as="geometry" />
        </mxCell>
      </root>
    </mxGraphModel>
  </diagram>
</mxfile>
